<?xml version="1.0" standalone="no"?>
<!DOCTYPE svg PUBLIC "-//W3C//DTD SVG 20010904//EN"
 "http://www.w3.org/TR/2001/REC-SVG-20010904/DTD/svg10.dtd">
<svg version="1.0" xmlns="http://www.w3.org/2000/svg"
 width="512.000000pt" height="512.000000pt" viewBox="0 0 512.000000 512.000000"
 preserveAspectRatio="xMidYMid meet">
<metadata>
Created by potrace 1.11, written by Peter Selinger 2001-2013
</metadata>
<g transform="translate(0.000000,512.000000) scale(0.100000,-0.100000)"
fill="#000000" stroke="none">
<path d="M1925 3626 c-253 -64 -462 -151 -701 -292 -105 -61 -149 -101 -175
-159 -25 -54 -24 -138 1 -190 14 -29 134 -154 378 -391 524 -512 489 -481 515
-464 109 69 221 119 332 148 l65 17 0 590 0 591 -26 52 c-40 80 -130 133 -224
131 -19 0 -93 -15 -165 -33z"/>
<path d="M2935 3648 c-74 -27 -136 -90 -155 -158 -6 -21 -10 -265 -10 -615 l0
-580 82 -23 c98 -27 180 -62 267 -114 62 -37 86 -45 93 -30 2 4 107 108 233
232 517 505 598 587 616 622 13 25 19 58 19 101 0 119 -45 170 -249 286 -182
103 -381 186 -566 236 -202 55 -270 64 -330 43z"/>
<path d="M560 2665 c-66 -21 -113 -65 -170 -160 -132 -218 -228 -451 -287
-695 -35 -145 -20 -223 54 -291 72 -67 34 -64 713 -67 l615 -2 22 82 c13 46
45 127 71 180 l49 98 -116 112 c-64 62 -252 246 -419 408 -170 166 -321 305
-345 318 -55 29 -129 36 -187 17z"/>
<path d="M4402 2663 c-51 -18 -102 -64 -573 -525 l-336 -329 49 -97 c26 -53
58 -134 71 -179 l22 -83 601 0 c667 0 656 -1 727 66 77 73 91 146 57 294 -51
215 -157 476 -271 667 -67 114 -110 158 -176 183 -63 23 -111 24 -171 3z"/>
</g>
</svg>
